<svg width="70" height="69" viewBox="0 0 70 69" fill="none" xmlns="http://www.w3.org/2000/svg">
<g filter="url(#filter0_i_12972_2897)">
<path d="M34.7943 66.7494C55.5141 66.7494 67.169 55.0945 67.169 34.3747C67.169 13.6549 55.5141 2 34.7943 2C14.0745 2 2.41956 13.6549 2.41956 34.3747C2.41956 55.0945 14.0745 66.7494 34.7943 66.7494Z" fill="#3FB33D"/>
</g>
<path d="M34.7943 66.7494C55.5141 66.7494 67.169 55.0945 67.169 34.3747C67.169 13.6549 55.5141 2 34.7943 2C14.0745 2 2.41956 13.6549 2.41956 34.3747C2.41956 55.0945 14.0745 66.7494 34.7943 66.7494Z" stroke="#063936" stroke-width="4" stroke-linecap="round" stroke-linejoin="round"/>
<path d="M13.81 46.7182C16.1016 46.7182 18.2993 45.8079 19.9197 44.1875C21.5401 42.5671 22.4504 40.3694 22.4504 38.0778V30.6717C22.4504 28.3801 23.3608 26.1824 24.9812 24.562C26.6016 22.9416 28.7993 22.0313 31.0908 22.0313C33.3824 22.0313 35.5801 21.1209 37.2005 19.5005C38.821 17.8801 39.7313 15.6824 39.7313 13.3908V2.23607C38.1481 2.07917 36.502 2 34.7943 2C14.0745 2 2.41956 13.6549 2.41956 34.3747C2.41956 38.9382 2.98491 43.0619 4.08797 46.7182H13.81Z" fill="#FFF7E1" stroke="#063936" stroke-width="4" stroke-linecap="round" stroke-linejoin="round"/>
<path d="M54.5683 59.6555L54.5626 61.7063L54.5683 59.6555ZM54.5626 61.7063C62.7666 56.4212 67.1696 47.1109 67.1696 34.3759C67.1696 34.2642 67.169 34.1527 67.1685 34.0416L66.8842 33.8805C64.4128 32.5989 61.6721 31.9226 58.8884 31.9072H48.3719C46.0803 31.9072 43.8826 32.8176 42.2622 34.4379C40.6418 36.0583 39.7314 38.256 39.7314 40.5477C39.7314 42.8392 40.6418 45.037 42.2622 46.6574C43.8826 48.2778 46.0803 49.1881 48.3719 49.1881C50.0087 49.1881 51.5784 49.8383 52.7361 50.9957C53.8933 52.1534 54.5434 53.7229 54.5434 55.3598V61.7182L54.5626 61.7063Z" fill="#FFF7E1"/>
<path d="M54.5683 59.6555L54.5626 61.7063M54.5626 61.7063C62.7666 56.4212 67.1696 47.1109 67.1696 34.3759C67.1696 34.2642 67.169 34.1527 67.1685 34.0416L66.8842 33.8805C64.4128 32.5989 61.6721 31.9226 58.8884 31.9072H48.3719C46.0803 31.9072 43.8826 32.8176 42.2622 34.4379C40.6418 36.0583 39.7314 38.256 39.7314 40.5477C39.7314 42.8392 40.6418 45.037 42.2622 46.6574C43.8826 48.2777 46.0803 49.1881 48.3719 49.1881C50.0087 49.1881 51.5784 49.8383 52.7361 50.9957C53.8933 52.1534 54.5434 53.7229 54.5434 55.3598V61.7182L54.5626 61.7063Z" stroke="#063936" stroke-width="4" stroke-linecap="round" stroke-linejoin="round"/>
<defs>
<filter id="filter0_i_12972_2897" x="0.419556" y="0" width="68.7494" height="68.749" filterUnits="userSpaceOnUse" color-interpolation-filters="sRGB">
<feFlood flood-opacity="0" result="BackgroundImageFix"/>
<feBlend mode="normal" in="SourceGraphic" in2="BackgroundImageFix" result="shape"/>
<feColorMatrix in="SourceAlpha" type="matrix" values="0 0 0 0 0 0 0 0 0 0 0 0 0 0 0 0 0 0 127 0" result="hardAlpha"/>
<feOffset dy="-11"/>
<feComposite in2="hardAlpha" operator="arithmetic" k2="-1" k3="1"/>
<feColorMatrix type="matrix" values="0 0 0 0 0.0149102 0 0 0 0 0.593056 0 0 0 0 0.00494213 0 0 0 1 0"/>
<feBlend mode="normal" in2="shape" result="effect1_innerShadow_12972_2897"/>
</filter>
</defs>
</svg>
