<svg width="95" height="64" viewBox="0 0 95 64" fill="none" xmlns="http://www.w3.org/2000/svg">
<path d="M56.004 28.1686C47.6202 36.6819 48.7885 46.3813 56.004 53.7085C62.4291 60.2326 73.6501 59.7757 82.8324 52.0057C93.7625 42.7567 94.5698 25.6146 87.8627 16.25C82.8324 23.0606 64.388 19.6553 56.004 28.1686Z" stroke="#063936" stroke-width="4" stroke-linecap="round" stroke-linejoin="round"/>
<path d="M74.4485 34.0732C64.1829 39.3234 55.6282 46.3235 55.6282 53.3236" stroke="#063936" stroke-width="4" stroke-linecap="round" stroke-linejoin="round"/>
<g filter="url(#filter0_i_12972_2924)">
<path d="M47.3217 20.6484C57.8016 31.2901 56.3413 43.4145 47.3217 52.5736C39.2903 60.7288 25.2639 60.1576 13.7859 50.4451C0.123141 38.8837 -0.885959 17.4559 7.49795 5.75C13.7859 14.2634 36.8417 10.0067 47.3217 20.6484Z" fill="#3FB33D"/>
</g>
<path d="M47.3217 20.6484C57.8016 31.2901 56.3413 43.4145 47.3217 52.5736C39.2903 60.7288 25.2639 60.1576 13.7859 50.4451C0.123141 38.8837 -0.885959 17.4559 7.49795 5.75C13.7859 14.2634 36.8417 10.0067 47.3217 20.6484Z" stroke="#063936" stroke-width="4" stroke-linecap="round" stroke-linejoin="round"/>
<path d="M24.2659 28.0293C37.0979 34.592 47.7915 43.3423 47.7915 52.0925" stroke="#063936" stroke-width="4" stroke-linecap="round" stroke-linejoin="round"/>
<defs>
<filter id="filter0_i_12972_2924" x="0.146362" y="3.75" width="56.4979" height="56.501" filterUnits="userSpaceOnUse" color-interpolation-filters="sRGB">
<feFlood flood-opacity="0" result="BackgroundImageFix"/>
<feBlend mode="normal" in="SourceGraphic" in2="BackgroundImageFix" result="shape"/>
<feColorMatrix in="SourceAlpha" type="matrix" values="0 0 0 0 0 0 0 0 0 0 0 0 0 0 0 0 0 0 127 0" result="hardAlpha"/>
<feOffset dy="-11"/>
<feComposite in2="hardAlpha" operator="arithmetic" k2="-1" k3="1"/>
<feColorMatrix type="matrix" values="0 0 0 0 0.0149102 0 0 0 0 0.593056 0 0 0 0 0.00494213 0 0 0 1 0"/>
<feBlend mode="normal" in2="shape" result="effect1_innerShadow_12972_2924"/>
</filter>
</defs>
</svg>
