<svg width="106" height="73" viewBox="0 0 106 73" fill="none" xmlns="http://www.w3.org/2000/svg">
<rect x="71.9641" y="32.6885" width="15.7402" height="31.2117" rx="5" fill="#FFF7E1" stroke="#063936" stroke-width="4"/>
<path d="M77.6491 2.72741C72.9112 6.24445 65.7855 13.2257 61.9493 21.1464C60.9682 23.1721 62.0219 25.4938 64.1881 26.105C65.2709 26.4105 66.5215 26.7184 67.9171 26.9999C63.4362 31.329 58.968 36.6835 56.0829 42.4185C55.0306 44.5104 56.1309 46.9408 58.3867 47.5686C63.094 48.8791 70.6998 50.3275 79.8341 50.3275C88.9684 50.3275 96.5741 48.8791 101.281 47.5686C103.537 46.9408 104.637 44.5104 103.585 42.4185C100.7 36.6836 96.2323 31.3292 91.7514 27.0002C93.1473 26.7186 94.3985 26.4106 95.4819 26.105C97.6482 25.4938 98.7017 23.1721 97.7207 21.1464C93.8845 13.2257 86.7587 6.24445 82.0208 2.72741C80.7142 1.75753 78.9557 1.75753 77.6491 2.72741Z" fill="#FFF7E1" stroke="#063936" stroke-width="4" stroke-linecap="round" stroke-linejoin="round"/>
<rect x="18.5859" y="32.6885" width="15.7402" height="31.2117" rx="5" fill="#FFF7E1" stroke="#063936" stroke-width="4"/>
<path d="M24.271 2.72741C19.533 6.24445 12.4073 13.2257 8.57114 21.1464C7.59004 23.1721 8.64372 25.4938 10.8099 26.105C11.8927 26.4105 13.1433 26.7184 14.5389 26.9999C10.058 31.329 5.58979 36.6835 2.70474 42.4185C1.65247 44.5104 2.75272 46.9408 5.00848 47.5686C9.7158 48.8791 17.3216 50.3275 26.4559 50.3275C35.5903 50.3275 43.1959 48.8791 47.9033 47.5686C50.1592 46.9408 51.2593 44.5104 50.2071 42.4185C47.3221 36.6836 42.8541 31.3292 38.3732 27.0002C39.7692 26.7186 41.0204 26.4106 42.1037 26.105C44.2701 25.4938 45.3236 23.1721 44.3425 21.1464C40.5064 13.2257 33.3805 6.24445 28.6426 2.72741C27.336 1.75753 25.5775 1.75753 24.271 2.72741Z" fill="#FFF7E1" stroke="#063936" stroke-width="4" stroke-linecap="round" stroke-linejoin="round"/>
<rect x="44.4484" y="36.4121" width="17.3931" height="34.4891" rx="5" fill="#FFF7E1" stroke="#063936" stroke-width="4"/>
<g filter="url(#filter0_i_12972_2908)">
<path d="M50.7306 3.30379C45.4951 7.19015 37.6211 14.9044 33.3822 23.6569C32.298 25.8953 33.4624 28.4608 35.8561 29.1362C37.0525 29.4738 38.4345 29.8139 39.9766 30.125C35.0251 34.9087 30.0878 40.8254 26.8998 47.1627C25.737 49.4743 26.9528 52.1598 29.4454 52.8535C34.647 54.3017 43.0515 55.9022 53.145 55.9022C63.2385 55.9022 71.6427 54.3017 76.8444 52.8535C79.3372 52.1598 80.5528 49.4743 79.3901 47.1627C76.2021 40.8256 71.265 34.9089 66.3136 30.1254C67.8562 29.8142 69.2387 29.4739 70.4359 29.1362C72.8297 28.4608 73.9938 25.8953 72.9098 23.6569C68.6708 14.9044 60.7967 7.19015 55.5612 3.30379C54.1175 2.23207 52.1743 2.23207 50.7306 3.30379Z" fill="#3FB33D"/>
</g>
<path d="M50.7306 3.30379C45.4951 7.19015 37.6211 14.9044 33.3822 23.6569C32.298 25.8953 33.4624 28.4608 35.8561 29.1362C37.0525 29.4738 38.4345 29.8139 39.9766 30.125C35.0251 34.9087 30.0878 40.8254 26.8998 47.1627C25.737 49.4743 26.9528 52.1598 29.4454 52.8535C34.647 54.3017 43.0515 55.9022 53.145 55.9022C63.2385 55.9022 71.6427 54.3017 76.8444 52.8535C79.3372 52.1598 80.5528 49.4743 79.3901 47.1627C76.2021 40.8256 71.265 34.9089 66.3136 30.1254C67.8562 29.8142 69.2387 29.4739 70.4359 29.1362C72.8297 28.4608 73.9938 25.8953 72.9098 23.6569C68.6708 14.9044 60.7967 7.19015 55.5612 3.30379C54.1175 2.23207 52.1743 2.23207 50.7306 3.30379Z" stroke="#063936" stroke-width="4" stroke-linecap="round" stroke-linejoin="round"/>
<defs>
<filter id="filter0_i_12972_2908" x="24.4537" y="0.5" width="57.3824" height="57.4023" filterUnits="userSpaceOnUse" color-interpolation-filters="sRGB">
<feFlood flood-opacity="0" result="BackgroundImageFix"/>
<feBlend mode="normal" in="SourceGraphic" in2="BackgroundImageFix" result="shape"/>
<feColorMatrix in="SourceAlpha" type="matrix" values="0 0 0 0 0 0 0 0 0 0 0 0 0 0 0 0 0 0 127 0" result="hardAlpha"/>
<feOffset dy="-11"/>
<feComposite in2="hardAlpha" operator="arithmetic" k2="-1" k3="1"/>
<feColorMatrix type="matrix" values="0 0 0 0 0.0149102 0 0 0 0 0.593056 0 0 0 0 0.00494213 0 0 0 1 0"/>
<feBlend mode="normal" in2="shape" result="effect1_innerShadow_12972_2908"/>
</filter>
</defs>
</svg>
