<svg width="82" height="66" viewBox="0 0 82 66" fill="none" xmlns="http://www.w3.org/2000/svg">
<path d="M54.0011 20.0083C53.7874 19.9458 53.5965 19.8248 53.451 19.6594C53.3054 19.4941 53.2112 19.2914 53.1791 19.0752C52.7968 14.9691 50.9906 11.1157 48.0611 8.15733C45.1317 5.19899 41.2564 3.31464 37.0814 2.81852C32.9064 2.32236 28.6841 3.24443 25.1186 5.43097C21.5531 7.61746 18.86 10.9362 17.4882 14.8339C17.3975 15.0156 17.2556 15.1681 17.0792 15.2733C16.9029 15.3785 16.6996 15.4321 16.4932 15.4277C14.5048 15.5586 12.5622 16.0721 10.7762 16.9391C8.99024 17.806 7.39593 19.0093 6.08435 20.4803C3.4354 23.4512 2.09872 27.332 2.36835 31.269C2.63798 35.2061 4.49186 38.8769 7.52208 41.4737C18.9135 51.2367 48.2032 51.9856 59.6993 41.8575C62.0619 39.7762 63.5637 36.918 63.9209 33.8241C64.2781 30.7301 63.4655 27.6152 61.6377 25.069C59.8093 22.5229 57.0924 20.7223 54.0011 20.0083Z" fill="#FFF7E1" stroke="#063936" stroke-width="4" stroke-linecap="round" stroke-linejoin="round"/>
<path d="M15.7859 15.4395C21.6529 15.4395 26.8999 19.3066 28.5551 22.8396" stroke="#063936" stroke-width="4" stroke-linecap="round" stroke-linejoin="round"/>
<g filter="url(#filter0_i_12972_2884)">
<path d="M69.3732 34.1899C69.1596 34.1274 68.9687 34.0064 68.8232 33.8411C68.6776 33.6758 68.5834 33.473 68.5513 33.2568C68.169 29.1508 66.3628 25.2973 63.4333 22.339C60.5039 19.3806 56.6286 17.4963 52.4536 17.0002C48.2786 16.504 44.0563 17.4261 40.4908 19.6126C36.9253 21.7991 34.2321 25.1179 32.8604 29.0155C32.7697 29.1973 32.6278 29.3497 32.4514 29.4549C32.2751 29.5602 32.0718 29.6137 31.8654 29.6093C29.877 29.7402 27.9344 30.2538 26.1484 31.1207C24.3624 31.9876 22.7681 33.1909 21.4565 34.662C18.8076 37.6328 17.4709 41.5136 17.7405 45.4507C18.0102 49.3877 19.864 53.0585 22.8943 55.6554C34.2857 65.4183 63.5754 66.1672 75.0715 56.0392C77.4341 53.9579 78.9359 51.0997 79.2931 48.0057C79.6503 44.9118 78.8377 41.7968 77.0098 39.2506C75.1815 36.7045 72.4646 34.904 69.3732 34.1899Z" fill="#3FB33D"/>
</g>
<path d="M69.3732 34.1899C69.1596 34.1274 68.9687 34.0064 68.8232 33.8411C68.6776 33.6758 68.5834 33.473 68.5513 33.2568C68.169 29.1508 66.3628 25.2973 63.4333 22.339C60.5039 19.3806 56.6286 17.4963 52.4536 17.0002C48.2786 16.504 44.0563 17.4261 40.4908 19.6126C36.9253 21.7991 34.2321 25.1179 32.8604 29.0155C32.7697 29.1973 32.6278 29.3497 32.4514 29.4549C32.2751 29.5602 32.0718 29.6137 31.8654 29.6093C29.877 29.7402 27.9344 30.2538 26.1484 31.1207C24.3624 31.9876 22.7681 33.1909 21.4565 34.662C18.8076 37.6328 17.4709 41.5136 17.7405 45.4507C18.0102 49.3877 19.864 53.0585 22.8943 55.6554C34.2857 65.4183 63.5754 66.1672 75.0715 56.0392C77.4341 53.9579 78.9359 51.0997 79.2931 48.0057C79.6503 44.9118 78.8377 41.7968 77.0098 39.2506C75.1815 36.7045 72.4646 34.904 69.3732 34.1899Z" stroke="#063936" stroke-width="4" stroke-linecap="round" stroke-linejoin="round"/>
<path d="M31.1581 29.6211C37.0251 29.6211 42.2721 33.4882 43.9273 37.0212" stroke="#063936" stroke-width="4" stroke-linecap="round" stroke-linejoin="round"/>
<defs>
<filter id="filter0_i_12972_2884" x="15.7064" y="14.8691" width="65.6691" height="50.4434" filterUnits="userSpaceOnUse" color-interpolation-filters="sRGB">
<feFlood flood-opacity="0" result="BackgroundImageFix"/>
<feBlend mode="normal" in="SourceGraphic" in2="BackgroundImageFix" result="shape"/>
<feColorMatrix in="SourceAlpha" type="matrix" values="0 0 0 0 0 0 0 0 0 0 0 0 0 0 0 0 0 0 127 0" result="hardAlpha"/>
<feOffset dy="-11"/>
<feComposite in2="hardAlpha" operator="arithmetic" k2="-1" k3="1"/>
<feColorMatrix type="matrix" values="0 0 0 0 0.0149102 0 0 0 0 0.593056 0 0 0 0 0.00494213 0 0 0 1 0"/>
<feBlend mode="normal" in2="shape" result="effect1_innerShadow_12972_2884"/>
</filter>
</defs>
</svg>
